<svg width="800" height="600" viewBox="0 0 800 600" fill="none" xmlns="http://www.w3.org/2000/svg">
  <!-- Background Elements -->
  <circle cx="400" cy="300" r="250" fill="#595CE9" opacity="0.1" />
  <circle cx="400" cy="300" r="200" fill="#595CE9" opacity="0.05" />
  
  <!-- Journal Icons -->
  <g transform="translate(250,150)">
    <!-- Main Journal -->
    <rect x="0" y="0" width="200" height="250" rx="10" fill="#595CE9" />
    <rect x="20" y="30" width="160" height="15" rx="7.5" fill="#EDEDFE" opacity="0.8" />
    <rect x="20" y="60" width="140" height="15" rx="7.5" fill="#EDEDFE" opacity="0.6" />
    <rect x="20" y="90" width="160" height="15" rx="7.5" fill="#EDEDFE" opacity="0.7" />
    <rect x="20" y="120" width="120" height="15" rx="7.5" fill="#EDEDFE" opacity="0.5" />
    
    <!-- Floating Elements -->
    <circle cx="40" cy="180" r="15" fill="#A8A9F3" />
    <circle cx="85" cy="180" r="15" fill="#A8A9F3" opacity="0.8" />
    <circle cx="130" cy="180" r="15" fill="#A8A9F3" opacity="0.6" />
    
    <!-- Tags -->
    <rect x="20" y="210" width="60" height="20" rx="10" fill="#EDEDFE" opacity="0.9" />
    <rect x="90" y="210" width="60" height="20" rx="10" fill="#EDEDFE" opacity="0.7" />
  </g>
  
  <!-- Decorative Elements -->
  <g transform="translate(500,200)">
    <!-- Small Journal 1 -->
    <rect x="0" y="0" width="100" height="125" rx="5" fill="#595CE9" opacity="0.8" transform="rotate(15)" />
    <rect x="10" y="15" width="80" height="7.5" rx="3.75" fill="#EDEDFE" opacity="0.6" transform="rotate(15)" />
    <rect x="10" y="30" width="70" height="7.5" rx="3.75" fill="#EDEDFE" opacity="0.5" transform="rotate(15)" />
    
    <!-- Small Journal 2 -->
    <rect x="-50" y="100" width="100" height="125" rx="5" fill="#595CE9" opacity="0.6" transform="rotate(-10)" />
    <rect x="-40" y="115" width="80" height="7.5" rx="3.75" fill="#EDEDFE" opacity="0.6" transform="rotate(-10)" />
    <rect x="-40" y="130" width="70" height="7.5" rx="3.75" fill="#EDEDFE" opacity="0.5" transform="rotate(-10)" />
  </g>
  
  <!-- Additional Decorative Elements -->
  <circle cx="150" cy="150" r="20" fill="#595CE9" opacity="0.2" />
  <circle cx="650" cy="450" r="30" fill="#595CE9" opacity="0.2" />
  <circle cx="200" cy="500" r="25" fill="#595CE9" opacity="0.2" />
  <circle cx="600" cy="100" r="15" fill="#595CE9" opacity="0.2" />
</svg> 