<svg xmlns="http://www.w3.org/2000/svg" width="156" height="52" viewBox="0 0 156 52">
  <g fill="none" fill-rule="evenodd">
    <rect width="156" height="52" fill="#000" rx="8"/>
    <g fill="#FFF" transform="translate(32 10)">
      <text font-family="-apple-system, system-ui" font-size="12" letter-spacing=".5">
        <tspan x="0" y="11">Download on the</tspan>
      </text>
      <text font-family="-apple-system, system-ui" font-size="21" font-weight="500" letter-spacing=".5">
        <tspan x="0" y="31">App Store</tspan>
      </text>
      <path d="M17.5 6.3c1-.8 1.7-2 1.5-3.2-1.5.1-3.3 1-4.3 2.2-1 1.1-1.8 2.3-1.5 3.6 1.6.1 3.3-.9 4.3-2.1m4.4 11.8c-.1-2.7 2.2-4 2.3-4.1-1.3-1.9-3.2-2.1-3.9-2.2-1.7-.2-3.2 1-4 1-.8 0-2.1-1-3.4-1-1.8 0-3.4 1-4.3 2.6-1.8 3.2-.5 7.9 1.3 10.5.9 1.3 1.9 2.7 3.3 2.6 1.3-.1 1.8-.8 3.4-.8 1.6 0 2 .8 3.4.8 1.4 0 2.3-1.3 3.2-2.5 1-1.4 1.4-2.8 1.4-2.9-.1 0-2.7-1-2.7-4"/>
    </g>
  </g>
</svg> 