<svg width="32" height="32" viewBox="0 0 32 32" fill="none" xmlns="http://www.w3.org/2000/svg">
<rect width="32" height="32" rx="8" fill="#595CE9"/>
<path d="M26.7483 19.3641C25.8935 19.4042 25.04 19.4969 24.1919 19.6395C23.3424 19.7737 22.5023 19.9827 21.6756 20.2428C20.9304 20.4767 20.2067 20.788 19.5004 21.1409C19.3412 20.9472 19.178 20.7701 19.0027 20.5943C18.77 20.3632 18.5278 20.1418 18.2589 19.9439C17.9901 19.7474 17.7091 19.5634 17.3907 19.425C17.0737 19.288 16.7259 19.1911 16.3553 19.18C15.9848 19.1814 15.6329 19.2686 15.3092 19.3959C14.9841 19.5246 14.6952 19.7045 14.4196 19.8955C14.144 20.0878 13.8939 20.3051 13.6531 20.532C13.4952 20.6842 13.3467 20.8365 13.2009 20.9998C12.5186 20.6344 11.819 20.3079 11.0966 20.0546C10.2685 19.7668 9.42443 19.5288 8.5696 19.3641C7.71612 19.1939 6.85594 19.0693 5.99041 18.9918C5.3523 18.9365 4.72088 18.9019 4.07609 18.9019C4.08411 18.8797 4.09214 18.8576 4.10017 18.8355C4.18444 18.5864 4.26204 18.3318 4.3316 18.0744C4.40117 17.8156 4.4627 17.5513 4.50417 17.2745C4.52156 17.1541 4.53628 17.031 4.54698 16.9037C5.08476 16.9133 5.63992 16.9521 6.18171 17.0088C6.87868 17.078 7.57431 17.179 8.26325 17.3174C8.95219 17.453 9.63579 17.6177 10.3087 17.8239C10.9842 18.0204 11.6424 18.2681 12.2979 18.5255L12.5186 18.6127L12.6752 18.4701C12.8839 18.2806 13.035 18.1034 13.1955 17.9069C13.348 17.7118 13.4925 17.5112 13.6223 17.3008C13.8831 16.8815 14.1052 16.4359 14.2684 15.9682C14.4316 15.5018 14.5601 15.0203 14.6149 14.529C14.6577 14.2855 14.6604 14.0378 14.6778 13.7928C14.6858 13.6171 14.6805 13.4413 14.6751 13.267C15.0162 13.1466 15.3359 13.0068 15.6543 12.8477C16.0343 12.6567 16.3981 12.4325 16.7459 12.1821C17.0911 11.9288 17.4121 11.6382 17.7038 11.3172C17.9513 11.0376 18.1626 10.7235 18.3379 10.39L19.4776 11.4901L20.7565 12.7065L19.5806 11.3836L18.3967 10.069L18.279 9.9375L18.1827 10.1036C17.978 10.4551 17.7412 10.7844 17.455 11.0709C17.166 11.3531 16.853 11.6064 16.5145 11.825C16.1747 12.0423 15.8175 12.2291 15.4523 12.3952C15.0885 12.5571 14.7019 12.7024 14.3326 12.8006L14.1413 12.8518L14.132 13.0815C14.1226 13.3085 14.1293 13.5368 14.1079 13.7624C14.0825 13.9866 14.0691 14.2135 14.0209 14.4335C13.95 14.8791 13.8136 15.3081 13.6557 15.7246C13.4965 16.1412 13.2825 16.5328 13.0377 16.8995C12.916 17.0836 12.7808 17.2565 12.6417 17.4254C12.5534 17.5264 12.4571 17.6302 12.3635 17.7243C11.7642 17.4669 11.1582 17.2233 10.5361 17.031C9.84314 16.8026 9.13681 16.6172 8.42512 16.4622C7.71344 16.3045 6.99507 16.1855 6.27134 16.0983C5.54361 16.0152 4.82925 15.964 4.07074 15.971L3.56908 15.9751L3.63731 16.5023C3.65871 16.6712 3.63865 16.9023 3.60253 17.1265C3.56641 17.3534 3.51155 17.5886 3.44734 17.8225C3.38313 18.0564 3.30955 18.2902 3.22929 18.5227C3.14902 18.7538 3.06073 18.9905 2.97244 19.2077L2.6875 19.8996L3.42192 19.8733C3.82058 19.8595 4.24598 19.8623 4.66068 19.8761C5.07806 19.8872 5.49545 19.9121 5.91283 19.9439C6.74625 20.0117 7.57565 20.1266 8.3957 20.2843C9.21841 20.4338 10.0211 20.6649 10.8117 20.9223C11.6036 21.181 12.3595 21.527 13.0925 21.9145L13.4042 22.0791L13.621 21.8052C13.9755 21.3568 14.4129 20.914 14.8744 20.5708C15.1072 20.402 15.3493 20.247 15.5995 20.1376C15.8496 20.0297 16.1038 19.9605 16.3526 19.9494C16.6015 19.9508 16.861 20.009 17.1178 20.1086C17.3747 20.2096 17.6235 20.3591 17.863 20.5237C18.3405 20.8572 18.7874 21.2904 19.1686 21.736L19.3439 21.9408L19.5606 21.8162C20.287 21.3997 21.0415 21.0233 21.8334 20.7341C22.6254 20.4504 23.432 20.1889 24.2588 20.009C25.0842 19.8235 25.9203 19.6755 26.763 19.5717C27.6058 19.4734 28.4553 19.3987 29.3074 19.3931C28.4593 19.3281 27.6031 19.3212 26.7483 19.3641Z" fill="white"/>
<path d="M13.3922 19.3241L15.9058 16.7239C16.0396 16.7972 16.1908 16.8443 16.354 16.8443C16.8837 16.8443 17.3131 16.4001 17.3131 15.8521C17.3131 15.3041 16.8837 14.8599 16.354 14.8599C15.8242 14.8599 15.3948 15.3041 15.3948 15.8521C15.3948 16.0209 15.439 16.1759 15.5112 16.3156L12.9976 18.9158L13.3922 19.3241Z" fill="white"/>
</svg> 
