<svg width="800" height="600" viewBox="0 0 800 600" fill="none" xmlns="http://www.w3.org/2000/svg">
  <!-- Phone Frame -->
  <rect x="250" y="50" width="300" height="500" rx="30" fill="#1C1C1F" />
  <rect x="260" y="60" width="280" height="480" rx="25" fill="#EDEDFE" />
  
  <!-- App Header -->
  <rect x="260" y="60" width="280" height="60" rx="25" fill="#595CE9" />
  <circle cx="290" cy="90" r="15" fill="#A8A9F3" />
  <rect x="320" y="80" width="100" height="20" rx="10" fill="#A8A9F3" />
  
  <!-- Journal Entry -->
  <rect x="280" y="140" width="240" height="80" rx="10" fill="#F5F5F5" />
  <rect x="295" y="155" width="180" height="10" rx="5" fill="#1C1C1F" />
  <rect x="295" y="175" width="210" height="10" rx="5" fill="#1C1C1F" opacity="0.7" />
  <rect x="295" y="195" width="160" height="10" rx="5" fill="#1C1C1F" opacity="0.5" />
  
  <!-- Mood Tracker -->
  <rect x="280" y="240" width="240" height="120" rx="10" fill="#F5F5F5" />
  <circle cx="310" cy="280" r="20" fill="#595CE9" opacity="0.2" />
  <circle cx="370" cy="280" r="20" fill="#595CE9" opacity="0.4" />
  <circle cx="430" cy="280" r="20" fill="#595CE9" opacity="0.6" />
  <circle cx="490" cy="280" r="20" fill="#595CE9" opacity="0.8" />
  
  <!-- Tags -->
  <rect x="280" y="380" width="70" height="30" rx="15" fill="#595CE9" opacity="0.2" />
  <rect x="365" y="380" width="70" height="30" rx="15" fill="#595CE9" opacity="0.3" />
  <rect x="450" y="380" width="70" height="30" rx="15" fill="#595CE9" opacity="0.4" />
  
  <!-- Bottom Navigation -->
  <rect x="260" y="500" width="280" height="40" rx="20" fill="#595CE9" />
  <circle cx="300" cy="520" r="10" fill="#EDEDFE" />
  <circle cx="400" cy="520" r="10" fill="#EDEDFE" />
  <circle cx="500" cy="520" r="10" fill="#EDEDFE" />
  
  <!-- Decorative Elements -->
  <circle cx="150" cy="200" r="50" fill="#595CE9" opacity="0.1" />
  <circle cx="650" cy="400" r="70" fill="#595CE9" opacity="0.1" />
  <circle cx="100" cy="450" r="30" fill="#595CE9" opacity="0.1" />
  <circle cx="700" cy="150" r="40" fill="#595CE9" opacity="0.1" />
</svg>