<?xml version="1.0" encoding="UTF-8"?>
<svg width="800" height="400" viewBox="0 0 800 400" fill="none" xmlns="http://www.w3.org/2000/svg">
  <!-- Background -->
  <rect width="800" height="400" fill="#EDEDFE" />
  
  <!-- Main Journal -->
  <rect x="200" y="50" width="400" height="300" rx="10" fill="#595CE9" />
  
  <!-- Journal Content -->
  <rect x="220" y="80" width="160" height="20" rx="5" fill="#EDEDFE" opacity="0.8" />
  <rect x="220" y="120" width="140" height="20" rx="5" fill="#EDEDFE" opacity="0.6" />
  <rect x="220" y="160" width="150" height="20" rx="5" fill="#EDEDFE" opacity="0.7" />
  
  <!-- Heart Symbol -->
  <rect x="420" y="80" width="160" height="100" rx="5" fill="#EDEDFE" opacity="0.4" />
  <path d="M480 100 C480 80 460 80 460 90 C460 100 480 110 480 100" 
        fill="#EDEDFE" opacity="0.9"/>
  <path d="M480 100 C480 80 500 80 500 90 C500 100 480 110 480 100" 
        fill="#EDEDFE" opacity="0.9"/>
  
  <!-- Supporting Elements -->
  <rect x="420" y="200" width="160" height="20" rx="5" fill="#EDEDFE" opacity="0.5" />
  <rect x="420" y="240" width="120" height="20" rx="5" fill="#EDEDFE" opacity="0.6" />
  
  <!-- Decorative Elements -->
  <circle cx="150" cy="150" r="50" fill="#595CE9" opacity="0.1" />
  <circle cx="650" cy="250" r="70" fill="#595CE9" opacity="0.1" />
  <circle cx="100" cy="300" r="30" fill="#595CE9" opacity="0.1" />
  <circle cx="700" cy="100" r="40" fill="#595CE9" opacity="0.1" />
</svg> 